<?xml version="1.0" encoding="utf-8" ?>
<svg xmlns="http://www.w3.org/2000/svg" xmlns:xlink="http://www.w3.org/1999/xlink" width="512" height="512">
	<path fill="#AAA" transform="matrix(0.8 0 0 0.8 -6.10352e-05 0)" d="M484.008 232.211C489.355 232.596 495.022 232.293 500.531 232.29L533.314 232.266C547.065 232.262 560.258 229.167 560.327 248.343L560.327 428.153C560.294 429.594 560.234 431.072 559.461 432.337L559.259 432.656C553.458 442.048 545.139 440.249 535.511 440.254L511.898 440.298C511.232 445.961 511.65 452.133 511.623 457.857L511.597 505.675C511.59 510.695 511.459 514.437 506.6 517.417L505.658 517.965C503.815 518.955 500.656 518.976 498.701 518.198L498.281 517.99C495.626 516.686 493.954 514.456 492.112 512.22L448.382 459.585C443.926 454.29 439.615 448.828 434.833 443.819C430.233 439.001 430.995 440.27 424.367 440.257L411.098 440.276L267.834 440.274C266.808 440.245 265.498 440.257 264.584 439.759L264.276 439.582C254.532 434.247 256.572 426.043 256.555 416.323L256.539 396.413C262.058 396.113 267.751 396.387 273.288 396.393L436.666 396.432C442.77 396.432 449.534 396.97 455.532 395.789C468.225 393.29 480.6 383.401 483.249 370.242C484.468 364.185 484.016 357.713 484.019 351.564L484.008 232.211Z"/>
	<path fill="#505566" transform="matrix(0.8 0 0 0.8 -6.10352e-05 0)" d="M441.174 147.641L449.681 147.565C458.075 147.566 461.222 152.973 461.234 161.234L461.239 358.836C461.237 360.96 461.758 364.792 460.496 366.546L460.292 366.816C457.581 370.662 456.404 371.729 451.545 371.765L442.71 371.802C423.177 371.85 250.969 371.294 249.751 372.07C249.063 372.508 248.273 373.56 247.674 374.168L158.113 464.62C150.897 471.838 145.707 474.42 139.129 465.053C137.089 462.147 137.966 441.592 137.935 436.719L137.884 372.259C135.169 371.478 131.2 371.881 128.335 371.873L104.743 371.861C98.4747 371.892 90.827 373.606 86.3785 367.926L86.0938 367.552C84.8099 365.885 84.0626 364.317 84.0279 362.188L83.9349 163.692C83.896 146.507 90.6355 147.608 104.101 147.62L441.174 147.641ZM190.209 242.541C169.707 246.484 173.688 276.231 195.71 274.001C214.671 269.386 214.429 241.808 190.209 242.541ZM262.4 242.576C260.138 242.874 258.165 243.502 256.158 244.594L255.757 244.805C252.715 246.43 249.722 249.385 248.713 252.744L247.958 255.768C247.423 258.006 247.837 260.65 248.519 262.809L248.685 263.345C249.353 265.428 250.368 267.186 251.76 268.865L252.07 269.242C253.526 270.97 255.324 272.169 257.344 273.14L257.676 273.308C260.022 274.462 262.963 274.928 265.544 274.542C287.299 268.853 282.507 240.414 262.4 242.576ZM341.331 242.548C321.777 245.603 321.295 274.687 345.313 274.045C357.047 272.001 363.13 259.173 356.527 248.906L356.358 248.635C353.514 244.207 346.403 242.13 341.331 242.548Z"/>
</svg>
